<svg width="24" height="24" viewBox="0 0 24 24" fill="none" xmlns="http://www.w3.org/2000/svg">
<path d="M5.25138 19.5H18.7514C18.9388 19.4997 19.1196 19.5695 19.2581 19.6958C19.3966 19.822 19.4828 19.9956 19.4997 20.1822C19.5166 20.3689 19.4631 20.5551 19.3496 20.7042C19.236 20.8534 19.0708 20.9546 18.8864 20.988L18.7514 21H5.25138C5.06396 21.0003 4.88321 20.9305 4.74471 20.8042C4.60621 20.678 4.52 20.5044 4.50307 20.3178C4.48614 20.1311 4.5397 19.9449 4.65321 19.7958C4.76673 19.6466 4.93196 19.5454 5.11638 19.512L5.25138 19.5H18.7514H5.25138ZM11.8664 1.512L12.0014 1.5C12.1769 1.49994 12.3469 1.56146 12.4818 1.67383C12.6166 1.78621 12.7078 1.94233 12.7394 2.115L12.7514 2.25V15.438L16.7744 11.4165C16.8985 11.2923 17.0622 11.2155 17.2371 11.1996C17.412 11.1837 17.5869 11.2297 17.7314 11.3295L17.8364 11.4165C17.9604 11.5408 18.0369 11.7046 18.0525 11.8795C18.0681 12.0544 18.0219 12.2292 17.9219 12.3735L17.8349 12.477L12.5324 17.781C12.4081 17.905 12.2442 17.9815 12.0694 17.9971C11.8945 18.0127 11.7197 17.9665 11.5754 17.8665L11.4704 17.781L6.16788 12.477C6.03501 12.3447 5.9565 12.1675 5.94783 11.9802C5.93916 11.7929 6.00096 11.6091 6.12105 11.4651C6.24113 11.3211 6.4108 11.2273 6.59661 11.2022C6.78242 11.1771 6.97089 11.2225 7.12488 11.3295L7.22838 11.4165L11.2514 15.438V2.25C11.2513 2.07446 11.3128 1.90446 11.4252 1.76961C11.5376 1.63476 11.6937 1.5436 11.8664 1.512L12.0014 1.5L11.8664 1.512Z" fill="white"/>
</svg>
