<svg width="44" height="44" viewBox="0 0 44 44" fill="none" xmlns="http://www.w3.org/2000/svg">
<rect width="44" height="44" rx="22" fill="#FFDF00"/>
<g clip-path="url(#clip0_1_742)">
<path fill-rule="evenodd" clip-rule="evenodd" d="M19.1272 14.9694C18.5265 15.4184 18.5268 15.4189 18.5271 15.4193L18.5279 15.4204L18.5298 15.4228L18.5347 15.4293L18.5494 15.4483C18.5614 15.4635 18.5776 15.4838 18.5981 15.5087C18.6391 15.5583 18.6972 15.6262 18.7723 15.7075C18.9222 15.8698 19.1411 16.0876 19.4271 16.3218C19.9972 16.7888 20.8486 17.3332 21.9625 17.6227C23.3532 17.9841 25.0533 17.9256 27.0143 16.9846C26.0734 18.9456 26.0148 20.6457 26.3763 22.0365C26.6658 23.1504 27.2102 24.0018 27.6771 24.5719C27.9114 24.8579 28.1291 25.0768 28.2915 25.2267C28.3728 25.3017 28.4406 25.3599 28.4903 25.4009C28.5151 25.4213 28.5354 25.4376 28.5507 25.4495L28.5696 25.4642L28.5761 25.4692L28.5786 25.471L28.5796 25.4718C28.5801 25.4721 28.5805 25.4725 29.0295 24.8717C29.4786 24.271 29.479 24.2713 29.4793 24.2716L29.48 24.2721L29.4809 24.2728L29.4763 24.2692C29.4706 24.2647 29.46 24.2562 29.4451 24.244C29.4152 24.2193 29.3684 24.1794 29.3089 24.1245C29.1897 24.0144 29.0213 23.8458 28.8376 23.6214C28.4685 23.1708 28.0492 22.5102 27.828 21.6592C27.4051 20.0317 27.645 17.4448 31.0741 13.9855C31.0966 13.9632 31.1192 13.9407 31.1417 13.9182L31.1414 13.9179L30.0811 12.8575L30.0808 12.8572C30.0582 12.8798 30.0358 12.9023 30.0134 12.9248C26.5541 16.3539 23.9672 16.5938 22.3398 16.1709C21.4887 15.9497 20.8281 15.5304 20.3775 15.1614C20.1531 14.9776 19.9845 14.8092 19.8744 14.69C19.8195 14.6305 19.7796 14.5837 19.755 14.5539C19.7427 14.539 19.7343 14.5284 19.7297 14.5226L19.7262 14.518L19.7269 14.5189L19.7273 14.5196C19.7276 14.52 19.7279 14.5204 19.1272 14.9694Z" fill="#111111"/>
<path d="M28.7578 15.2437L13.3892 30.6123" stroke="#111111" stroke-width="1.5"/>
</g>
<defs>
<clipPath id="clip0_1_742">
<rect width="24" height="24" fill="white" transform="translate(10 10)"/>
</clipPath>
</defs>
</svg>
