<svg width="16" height="16" viewBox="0 0 16 16" fill="none" xmlns="http://www.w3.org/2000/svg">
<path d="M14.6675 2.84675L14.6676 2.84674C14.498 2.39344 14.2383 1.99004 13.8992 1.65523L13.8923 1.64844L13.8924 1.64837C13.5597 1.30697 13.1575 1.04236 12.7178 0.875132L12.7136 0.873529L12.7136 0.873511C12.2816 0.704732 11.7797 0.581696 11.0159 0.547668L11.0142 0.547592C10.2067 0.50885 9.95589 0.499756 7.87965 0.499756C5.80361 0.499756 5.55193 0.508841 4.74638 0.544598L14.6675 2.84675ZM14.6675 2.84675L14.6692 2.85117M14.6675 2.84675L14.6692 2.85117M14.6692 2.85117C14.8363 3.28523 14.9585 3.79647 14.9922 4.57041M14.6692 2.85117L14.9922 4.57041M3.04514 0.871854L3.04513 0.871833C2.5981 1.04252 2.19958 1.30429 1.86825 1.64698L1.86153 1.65393L1.86146 1.65386C1.52368 1.98997 1.26122 2.39714 1.09496 2.84325L1.09346 2.84728L1.09345 2.84728C0.925889 3.28532 0.803827 3.79395 0.770084 4.56734L0.770011 4.56901C0.731655 5.38546 0.722656 5.63917 0.722656 7.73735C0.722656 9.83533 0.731647 10.0899 0.767046 10.9043L3.04514 0.871854ZM3.04514 0.871854L3.04959 0.870107M3.04514 0.871854L3.04959 0.870107M3.04959 0.870107C3.47774 0.701927 3.98211 0.578657 4.7463 0.544601L3.04959 0.870107ZM1.09186 12.6279L1.09184 12.628C1.26088 13.0799 1.52327 13.4843 1.86146 13.8208L1.86694 13.8263L1.8669 13.8263C2.19956 14.1677 2.60181 14.4323 3.04149 14.5996L3.04567 14.6012L3.04566 14.6012C3.47781 14.77 3.9796 14.893 4.74346 14.927C5.54887 14.9629 5.80055 14.9719 7.87673 14.9719C9.9529 14.9719 10.2045 14.9629 11.01 14.927M1.09186 12.6279L11.01 14.927M1.09186 12.6279L1.09016 12.6235M1.09186 12.6279L1.09016 12.6235M11.01 14.927C11.7743 14.893 12.2786 14.7698 12.7067 14.6016L12.7076 14.6012C13.6042 14.2509 14.3149 13.5338 14.6629 12.6246L11.01 14.927ZM1.09016 12.6235C0.923114 12.1894 0.800819 11.6782 0.76705 10.9044L1.09016 12.6235ZM14.9922 4.57041C15.0276 5.38331 15.0307 5.63624 15.0307 7.73735C15.0307 9.83533 15.0217 10.0899 14.9863 10.9043M14.9922 4.57041L14.9863 10.9043M14.9863 10.9043C14.9526 11.6775 14.8304 12.1863 14.663 12.6244L14.9863 10.9043ZM14.3166 12.4803C14.0095 13.2845 13.3774 13.9243 12.5782 14.236C12.2592 14.3613 11.7984 14.5 10.9976 14.5357C10.1792 14.5725 9.92815 14.5815 7.88269 14.5815C5.83741 14.5815 5.58321 14.5725 4.76775 14.5357C3.9664 14.5001 3.50886 14.3621 3.19021 14.2372C2.79347 14.0883 2.4303 13.853 2.13338 13.5436C1.83024 13.2429 1.59774 12.8811 1.45043 12.4801C1.3272 12.1591 1.19103 11.6953 1.15591 10.8907L14.3166 12.4803ZM14.3166 12.4803C14.4401 12.1593 14.5771 11.6982 14.6125 10.8876L14.3166 12.4803ZM12.578 1.24965C12.9748 1.3984 13.338 1.63377 13.6349 1.94313C13.9381 2.2438 14.1705 2.60563 14.3179 3.00671C14.4411 3.32778 14.5773 3.79146 14.6125 4.5962L12.578 1.24965ZM12.578 1.24965C12.2594 1.12478 11.802 0.986756 11.0009 0.951061L12.578 1.24965ZM1.11056 7.74337C1.11056 9.81029 1.11944 10.0638 1.1559 10.8905L4.77053 0.951057C3.97268 0.986736 3.51222 1.12467 3.19332 1.24964C2.79512 1.39887 2.43671 1.63417 2.13949 1.94C1.82937 2.24082 1.59701 2.60757 1.45041 3.00675C1.32729 3.32754 1.19105 3.78826 1.15591 4.59605C1.11944 5.41996 1.11056 5.67631 1.11056 7.74337ZM7.88561 0.905217C5.84006 0.905217 5.5891 0.914317 4.77061 0.951053L11.0006 0.951049C10.1851 0.914315 9.93412 0.905217 7.88561 0.905217ZM14.6579 7.74337C14.6579 5.67626 14.6488 5.42305 14.6125 4.59629L14.6125 10.8874C14.6488 10.0607 14.6579 9.81043 14.6579 7.74337Z" fill="#1E1E1E" stroke="black"/>
<path d="M4.44531 7.73752C4.44531 5.81435 5.98814 4.26294 7.87849 4.26294C9.76895 4.26294 11.3117 5.81434 11.3117 7.73752C11.3117 9.66071 9.76895 11.2121 7.87849 11.2121C5.98814 11.2121 4.44531 9.6607 4.44531 7.73752ZM4.82714 7.73752C4.82714 9.43237 6.18875 10.8157 7.87849 10.8157C9.56837 10.8157 10.9299 9.43236 10.9299 7.73752C10.9299 6.04269 9.56837 4.65931 7.87849 4.65931C6.18875 4.65931 4.82714 6.04267 4.82714 7.73752Z" fill="#1E1E1E" stroke="black"/>
<path d="M12.387 3.60544C12.387 3.84651 12.1949 4.03315 11.9688 4.03315C11.7429 4.03315 11.5508 3.84656 11.5508 3.60544C11.5508 3.36425 11.7429 3.17773 11.9688 3.17773C12.1949 3.17773 12.387 3.36429 12.387 3.60544Z" fill="#1E1E1E" stroke="black"/>
</svg>
