<svg width="16" height="11" viewBox="0 0 16 11" fill="none" xmlns="http://www.w3.org/2000/svg">
<path d="M10.4465 0.668205H14.439V1.64269H10.4465V0.668205ZM6.44603 4.52387C7.32858 4.09904 7.79087 3.45274 7.79087 2.45409C7.79087 0.478945 6.32996 -0.000244141 4.6429 -0.000244141H0V9.91375H4.77298C6.5621 9.91375 8.24115 9.04798 8.24115 7.03458C8.24115 5.7903 7.65679 4.87017 6.44603 4.52387ZM2.16535 1.69101H4.19662C4.97911 1.69101 5.68155 1.91047 5.68155 2.82456C5.68155 3.66616 5.13521 4.00441 4.36073 4.00441H2.16535V1.69101ZM4.4768 8.23054H2.16335V5.50037H4.52283C5.47542 5.50037 6.0778 5.90104 6.0778 6.91579C6.0778 7.91444 5.35935 8.23054 4.4768 8.23054ZM16 6.42855C16 4.30441 14.7652 2.53463 12.5318 2.53463C10.3605 2.53463 8.88355 4.17958 8.88355 6.33593C8.88355 8.57081 10.2824 10.105 12.5318 10.105C14.2349 10.105 15.3376 9.33389 15.8679 7.68894H14.1408C13.9527 8.30302 13.1882 8.62517 12.5939 8.62517C11.4452 8.62517 10.8448 7.94867 10.8448 6.79901H15.986C15.992 6.68022 16 6.55539 16 6.42855ZM10.8448 5.55473C10.9068 4.61045 11.5332 4.02052 12.4698 4.02052C13.4544 4.02052 13.9467 4.60239 14.0328 5.55473H10.8448Z" fill="#1E1E1E"/>
</svg>
