<svg width="16" height="11" viewBox="0 0 16 11" fill="none" xmlns="http://www.w3.org/2000/svg">
<path d="M10.4465 0.668449H14.439V1.64294H10.4465V0.668449ZM6.44603 4.52411C7.32858 4.09929 7.79087 3.45298 7.79087 2.45434C7.79087 0.47919 6.32996 0 4.6429 0H0V9.91399H4.77298C6.5621 9.91399 8.24115 9.04823 8.24115 7.03483C8.24115 5.79054 7.65679 4.87042 6.44603 4.52411ZM2.16535 1.69126H4.19662C4.97911 1.69126 5.68155 1.91072 5.68155 2.8248C5.68155 3.6664 5.13521 4.00466 4.36073 4.00466H2.16535V1.69126ZM4.4768 8.23079H2.16335V5.50061H4.52283C5.47542 5.50061 6.0778 5.90128 6.0778 6.91603C6.0778 7.91468 5.35935 8.23079 4.4768 8.23079ZM16 6.42879C16 4.30465 14.7652 2.53487 12.5318 2.53487C10.3605 2.53487 8.88355 4.17982 8.88355 6.33617C8.88355 8.57105 10.2824 10.1053 12.5318 10.1053C14.2349 10.1053 15.3376 9.33413 15.8679 7.68918H14.1408C13.9527 8.30327 13.1882 8.62541 12.5939 8.62541C11.4452 8.62541 10.8448 7.94891 10.8448 6.79926H15.986C15.992 6.68047 16 6.55564 16 6.42879ZM10.8448 5.55498C10.9068 4.61069 11.5332 4.02076 12.4698 4.02076C13.4544 4.02076 13.9467 4.60264 14.0328 5.55498H10.8448Z" fill="#1E1E1E"/>
</svg>
