<svg width="16" height="16" viewBox="0 0 16 16" fill="none" xmlns="http://www.w3.org/2000/svg">
<path d="M15.4918 4.54861C15.4559 3.72652 15.3243 3.16133 15.1359 2.6716C14.9415 2.15175 14.6424 1.68633 14.2505 1.29943C13.8676 0.906505 13.404 0.601186 12.8956 0.407793C12.4081 0.217352 11.8517 0.0844094 11.0382 0.048163C10.2186 0.00884696 9.9584 -0.000244141 7.87965 -0.000244141C5.80089 -0.000244141 5.5407 0.00884696 4.72413 0.0450933C3.9106 0.0813397 3.3513 0.2144 2.86678 0.404723C2.35223 0.601186 1.89166 0.903435 1.50879 1.29943C1.11996 1.68633 0.817938 2.15482 0.626443 2.66864C0.437986 3.16133 0.306428 3.72345 0.270559 4.54554C0.231653 5.37378 0.222656 5.63671 0.222656 7.73735C0.222656 9.83798 0.231653 10.1009 0.267521 10.9261C0.30339 11.7482 0.435065 12.3134 0.623522 12.8031C0.817938 13.3229 1.11996 13.7884 1.50879 14.1753C1.89166 14.5682 2.35527 14.8735 2.86374 15.0669C3.3513 15.2573 3.90756 15.3903 4.72121 15.4265C5.53766 15.4629 5.79797 15.4719 7.87673 15.4719C9.95548 15.4719 10.2157 15.4629 11.0322 15.4265C11.8458 15.3903 12.4051 15.2573 12.8896 15.0669C13.9186 14.6649 14.7321 13.8428 15.1299 12.8031C15.3183 12.3104 15.4499 11.7482 15.4858 10.9261C15.5217 10.1009 15.5307 9.83798 15.5307 7.73735C15.5307 5.63671 15.5276 5.37378 15.4918 4.54861ZM14.113 10.8656C14.08 11.6213 13.9544 12.0293 13.8498 12.3013C13.5925 12.9754 13.0631 13.5103 12.3961 13.7703C12.1269 13.8761 11.7202 14.003 10.9753 14.0362C10.1678 14.0725 9.92557 14.0815 7.88269 14.0815C5.8398 14.0815 5.59456 14.0725 4.78991 14.0362C4.04216 14.003 3.63837 13.8761 3.36918 13.7703C3.03725 13.6463 2.73511 13.4499 2.48987 13.193C2.23563 12.9421 2.04122 12.6398 1.91854 12.3044C1.81385 12.0324 1.68825 11.6213 1.65542 10.8687C1.61944 10.0526 1.61056 9.80776 1.61056 7.74337C1.61056 5.67898 1.61944 5.43116 1.65542 4.61816C1.68825 3.86253 1.81385 3.45449 1.91854 3.18247C2.04122 2.84692 2.23563 2.54172 2.4929 2.29378C2.74107 2.03687 3.04017 1.84041 3.37222 1.71656C3.64141 1.61077 4.04823 1.48385 4.79295 1.45055C5.60052 1.41431 5.84284 1.40522 7.88561 1.40522C9.93153 1.40522 10.1737 1.41431 10.9784 1.45055C11.7261 1.48385 12.1299 1.61077 12.3991 1.71656C12.731 1.84041 13.0332 2.03687 13.2784 2.29378C13.5327 2.54467 13.7271 2.84692 13.8498 3.18247C13.9544 3.45449 14.08 3.86548 14.113 4.61816C14.1489 5.43423 14.1579 5.67898 14.1579 7.74337C14.1579 9.80776 14.1489 10.0496 14.113 10.8656Z" fill="#1E1E1E"/>
<path d="M7.87849 3.76294C5.70709 3.76294 3.94531 5.54314 3.94531 7.73752C3.94531 9.9319 5.70709 11.7121 7.87849 11.7121C10.05 11.7121 11.8117 9.9319 11.8117 7.73752C11.8117 5.54314 10.05 3.76294 7.87849 3.76294ZM7.87849 10.3157C6.4698 10.3157 5.32714 9.16117 5.32714 7.73752C5.32714 6.31388 6.4698 5.15931 7.87849 5.15931C9.28731 5.15931 10.4299 6.31388 10.4299 7.73752C10.4299 9.16117 9.28731 10.3157 7.87849 10.3157Z" fill="#1E1E1E"/>
<path d="M12.887 3.60544C12.887 4.11775 12.4759 4.53315 11.9688 4.53315C11.4618 4.53315 11.0508 4.11775 11.0508 3.60544C11.0508 3.09301 11.4618 2.67773 11.9688 2.67773C12.4759 2.67773 12.887 3.09301 12.887 3.60544Z" fill="#1E1E1E"/>
</svg>
