<svg width="16" height="16" viewBox="0 0 16 16" fill="none" xmlns="http://www.w3.org/2000/svg">
<path d="M14.736 3.91386C14.0407 2.70898 13.0972 1.75482 11.9041 1.05295C10.7118 0.351082 9.41055 -0.000244141 8.00043 -0.000244141C6.59032 -0.000244141 5.2891 0.351082 4.09599 1.05295C2.90366 1.75482 1.95943 2.70898 1.26488 3.91386C0.570323 5.11875 0.222656 6.43445 0.222656 7.85941C0.222656 9.28436 0.569545 10.6001 1.26488 11.805C1.96021 13.0106 2.90366 13.964 4.09677 14.6659C5.2891 15.3677 6.59032 15.7191 8.00043 15.7191C9.41055 15.7191 10.7118 15.3677 11.9049 14.6659C13.0972 13.964 14.0414 13.0106 14.7368 11.805C15.4313 10.6001 15.7782 9.28436 15.7782 7.85941C15.7782 6.43445 15.4313 5.11875 14.736 3.91386ZM8.00043 1.30446C9.55599 1.30446 10.9342 1.80748 12.1382 2.81272C11.4227 3.73545 10.3602 4.49469 8.94932 5.09202C8.16999 3.66707 7.32532 2.47712 6.41299 1.52374C6.94343 1.37755 7.47077 1.30446 8.00043 1.30446ZM2.95266 3.77239C3.5391 3.02808 4.24066 2.44725 5.06121 2.02755C6.00388 2.97149 6.86955 4.14965 7.65899 5.56439C6.10343 6.03597 4.45921 6.27176 2.7271 6.27176C2.28143 6.27176 1.94466 6.26154 1.71599 6.24032C1.95477 5.33882 2.36699 4.5167 2.95266 3.77239ZM1.51377 7.85941C1.51377 7.81696 1.5161 7.76509 1.52155 7.70221C1.52699 7.63934 1.52932 7.58746 1.52932 7.54502C1.72688 7.55602 2.02788 7.56074 2.43232 7.56074C4.50588 7.56074 6.43477 7.27229 8.21821 6.69618C8.36366 6.98934 8.51455 7.31945 8.66932 7.68649C7.64266 7.91678 6.58955 8.47717 5.51077 9.36846C4.43199 10.2597 3.64488 11.1974 3.1471 12.1822C2.05821 10.9349 1.51377 9.49421 1.51377 7.85941ZM8.00043 14.4144C6.52732 14.4144 5.2051 13.953 4.03299 13.0318C4.50043 12.0989 5.21832 11.2068 6.18821 10.3588C7.15732 9.50993 8.11943 8.98098 9.07377 8.77113C9.67421 10.4476 10.0794 12.1814 10.2871 13.9742C9.52955 14.2674 8.76732 14.4144 8.00043 14.4144ZM13.5071 11.3019C12.9891 12.1398 12.3202 12.8267 11.5004 13.3619C11.3138 11.7271 10.956 10.134 10.4279 8.58249C11.1528 8.53062 11.8007 8.5039 12.3723 8.5039C12.9938 8.5039 13.6837 8.53062 14.4404 8.58249C14.3362 9.55709 14.0251 10.4633 13.5071 11.3019ZM12.5427 7.37211C11.6404 7.37211 10.8059 7.40905 10.0382 7.48214C9.84066 6.96891 9.66488 6.54449 9.50932 6.20888C11.1162 5.49679 12.2564 4.63223 12.9308 3.61519C13.8641 4.72655 14.3728 5.99431 14.4552 7.41927C13.8237 7.38783 13.1859 7.37211 12.5427 7.37211Z" fill="#1E1E1E"/>
</svg>
